<?xml version="1.0" standalone="no"?>
<!DOCTYPE svg PUBLIC "-//W3C//DTD SVG 20010904//EN"
 "http://www.w3.org/TR/2001/REC-SVG-20010904/DTD/svg10.dtd">
<svg version="1.0" xmlns="http://www.w3.org/2000/svg"
 width="612.000000pt" height="612.000000pt" viewBox="0 0 612.000000 612.000000"
 preserveAspectRatio="xMidYMid meet">
<g transform="translate(0.000000,612.000000) scale(0.100000,-0.100000)"
fill="#000000" stroke="none">
<path d="M2800 5823 c-81 -6 -303 -44 -402 -69 -616 -154 -1155 -509 -1549
-1019 -243 -314 -439 -755 -514 -1152 -43 -232 -58 -577 -35 -803 78 -744 445
-1415 1034 -1888 297 -239 685 -432 1061 -526 238 -59 347 -71 660 -71 310 0
384 7 623 61 950 213 1745 950 2031 1884 82 264 111 447 118 740 7 297 -15
519 -76 758 -287 1117 -1230 1943 -2371 2077 -113 14 -447 18 -580 8z m440
-183 c641 -48 1195 -303 1650 -759 157 -157 218 -231 327 -396 397 -601 524
-1322 358 -2030 -41 -171 -103 -343 -190 -520 -141 -289 -271 -471 -495 -696
-151 -151 -251 -234 -407 -338 -602 -398 -1340 -524 -2048 -351 -182 45 -345
105 -520 192 -704 351 -1203 985 -1379 1753 -100 435 -78 923 59 1348 150 466
417 866 790 1186 512 439 1187 661 1855 611z"/>
<path d="M1391 4377 c-28 -14 -31 -19 -147 -197 -48 -74 -108 -166 -133 -205
-335 -516 -370 -579 -341 -625 27 -43 290 -305 318 -317 64 -27 122 16 122 89
0 37 -8 47 -121 163 l-120 123 90 139 c49 76 133 206 185 288 229 357 223 350
243 347 10 -2 262 -66 561 -143 298 -76 558 -139 576 -139 64 0 107 66 81 126
-19 45 -7 41 -450 154 -110 28 -258 66 -330 85 -71 18 -209 54 -306 79 -196
51 -194 51 -228 33z"/>
<path d="M4845 4090 c-599 -181 -741 -220 -803 -220 -61 0 -112 11 -543 115
-205 50 -260 54 -340 26 -89 -31 -741 -290 -777 -308 -58 -30 -81 -110 -46
-163 55 -82 142 -146 244 -180 106 -36 199 -26 459 50 172 49 219 59 237 51
13 -6 73 -45 134 -88 61 -43 157 -110 213 -149 56 -39 215 -149 352 -246 138
-96 265 -183 284 -192 90 -47 228 -66 326 -46 50 10 756 284 828 321 33 17 57
51 57 80 0 15 -13 60 -29 100 -95 238 -301 761 -301 765 0 22 -56 114 -76 123
-36 16 -43 15 -219 -39z"/>
<path d="M1634 3208 c-18 -6 -74 -47 -126 -92 -52 -44 -146 -124 -208 -176
-130 -110 -153 -145 -154 -236 -2 -165 154 -290 282 -225 22 11 43 25 47 31 3
5 11 10 16 10 5 0 0 -18 -11 -40 -14 -28 -20 -59 -20 -108 0 -184 161 -318
307 -257 21 9 45 23 55 32 22 20 22 16 3 -30 -21 -52 -19 -143 6 -197 25 -55
53 -87 99 -110 91 -46 147 -34 235 51 34 32 65 59 68 59 4 0 2 -12 -3 -26 -34
-89 17 -215 104 -255 84 -38 133 -23 219 71 82 88 97 173 46 257 -40 65 -128
103 -196 84 -41 -12 -56 -6 -33 12 30 23 59 74 70 122 35 158 -137 303 -287
240 -46 -19 -53 -19 -28 3 41 34 75 89 86 140 43 183 -140 349 -317 288 -26
-9 -49 -16 -50 -16 -2 0 13 23 32 51 33 50 40 79 35 148 -9 123 -151 210 -277
169z"/>
<path d="M3421 2804 c-29 -21 -49 -68 -43 -100 5 -30 47 -67 359 -318 218
-176 243 -200 259 -242 15 -40 16 -53 6 -93 -22 -83 -106 -135 -191 -116 -26
6 -255 182 -416 320 -174 149 -209 163 -266 106 -31 -31 -37 -64 -18 -103 6
-13 119 -111 251 -218 259 -209 275 -228 263 -300 -11 -65 -87 -118 -152 -105
-22 4 -99 60 -235 170 -172 140 -208 165 -236 165 -46 0 -71 -16 -88 -55 -23
-55 -5 -83 111 -176 111 -89 131 -118 121 -173 -9 -47 -47 -76 -100 -76 -36 0
-51 9 -126 70 -72 59 -91 70 -123 70 -29 0 -45 -7 -68 -29 -53 -53 -38 -95 67
-181 123 -100 154 -115 249 -115 64 0 89 5 125 23 59 31 114 84 135 132 l17
38 42 -21 c59 -32 187 -36 247 -9 106 48 165 115 192 221 l13 53 53 3 c164 12
297 133 320 294 l6 46 56 6 c105 11 201 77 251 171 20 37 23 58 23 143 0 115
-9 138 -82 217 -39 41 -51 48 -83 48 -27 0 -45 -7 -63 -25 -44 -45 -41 -90 13
-151 39 -45 47 -93 24 -140 -27 -54 -66 -79 -120 -78 -51 1 -30 -14 -437 317
-283 230 -308 245 -356 211z"/>
</g>
</svg>
