<?xml version="1.0" standalone="no"?>
<!DOCTYPE svg PUBLIC "-//W3C//DTD SVG 20010904//EN"
 "http://www.w3.org/TR/2001/REC-SVG-20010904/DTD/svg10.dtd">
<svg version="1.0" xmlns="http://www.w3.org/2000/svg"
 width="612.000000pt" height="612.000000pt" viewBox="0 0 612.000000 612.000000"
 preserveAspectRatio="xMidYMid meet">
<metadata>
Created by potrace 1.16, written by Peter Selinger 2001-2019
</metadata>
<g transform="translate(0.000000,612.000000) scale(0.100000,-0.100000)"
fill="#000000" stroke="none">
<path d="M939 5799 l-29 -31 0 -2203 c0 -1371 4 -2213 10 -2229 20 -52 -10
-51 946 -56 l891 -5 -89 -305 c-99 -338 -101 -356 -45 -390 18 -11 39 -20 47
-20 8 0 129 43 269 95 140 52 259 95 265 95 6 -1 76 -89 156 -197 182 -246
197 -263 241 -263 36 0 83 34 93 67 129 445 190 651 196 662 5 10 15 -8 28
-55 128 -434 183 -617 192 -634 20 -37 79 -52 120 -30 15 8 107 128 314 407
17 23 36 43 41 43 6 0 126 -43 267 -96 269 -101 282 -103 329 -65 19 15 24 29
24 63 -1 24 -48 200 -109 408 -60 201 -137 463 -172 582 l-65 217 16 93 c21
127 37 166 108 261 34 45 77 114 96 152 31 62 35 79 36 150 0 71 -4 88 -33
148 -18 37 -60 102 -92 146 -82 111 -89 127 -115 273 -28 154 -39 187 -78 251
-46 76 -147 133 -268 152 -24 3 -52 9 -61 11 -17 5 -18 68 -18 1140 l0 1136
-29 29 -29 29 -1712 0 -1712 0 -29 -31z m3321 -1200 l0 -1041 -32 24 c-166
126 -226 153 -333 153 -70 0 -89 -4 -146 -32 -35 -18 -103 -60 -149 -94 -109
-79 -128 -86 -290 -116 -83 -14 -156 -34 -189 -50 -108 -52 -166 -141 -195
-298 -39 -215 -35 -203 -113 -315 -41 -58 -88 -134 -106 -170 -28 -57 -32 -75
-32 -145 0 -71 4 -89 32 -145 18 -36 58 -99 89 -140 78 -105 93 -139 116 -259
l19 -106 -58 -197 -58 -198 -857 0 -858 0 0 2085 0 2085 1580 0 1580 0 0
-1041z m-287 -1070 c23 -12 74 -45 112 -74 131 -96 186 -119 355 -145 144 -22
195 -48 219 -113 6 -15 20 -81 31 -148 27 -158 48 -211 126 -317 76 -102 114
-175 114 -218 0 -37 -36 -107 -94 -184 -94 -123 -117 -178 -146 -352 -12 -67
-30 -138 -41 -160 -26 -51 -71 -71 -222 -98 -144 -25 -209 -49 -289 -105 -195
-138 -217 -147 -286 -127 -21 6 -88 47 -150 91 -133 94 -184 115 -340 141
-139 23 -200 51 -224 100 -10 20 -27 91 -38 158 -24 145 -47 210 -98 283 -21
30 -54 77 -74 105 -52 74 -68 109 -68 149 0 46 16 76 103 200 88 124 109 177
137 335 12 69 29 140 38 159 31 63 65 76 287 116 103 18 172 50 278 129 135
101 189 116 270 75z m-849 -1939 c41 -20 99 -36 180 -50 162 -27 176 -32 296
-117 58 -41 122 -84 142 -94 l37 -19 -14 -42 c-7 -24 -32 -108 -55 -188 -73
-250 -140 -473 -145 -478 -3 -3 -7 -3 -8 -1 -2 2 -52 69 -112 149 -138 186
-161 210 -199 210 -25 0 -347 -114 -397 -141 -10 -5 -20 -6 -23 -1 -2 4 13 66
34 137 21 72 63 218 95 325 32 107 66 228 77 268 11 39 23 72 25 72 3 0 33
-13 67 -30z m1669 -167 c32 -109 74 -252 93 -318 75 -254 85 -288 82 -290 -2
-2 -91 30 -198 70 -107 41 -209 74 -226 75 -40 0 -51 -11 -189 -196 -65 -88
-120 -161 -122 -163 -9 -12 -16 9 -163 514 -29 99 -55 185 -57 190 -2 6 18 20
44 32 27 13 82 48 123 79 104 78 156 100 300 124 83 14 145 31 185 50 33 15
62 29 65 29 3 1 32 -88 63 -196z"/>
<path d="M2586 5319 c-104 -54 -200 -86 -304 -100 -119 -17 -129 -28 -148
-154 -11 -69 -14 -150 -12 -260 4 -143 7 -169 32 -240 35 -104 89 -194 165
-277 102 -111 295 -238 362 -238 58 0 210 93 319 196 196 185 263 383 239 702
-11 153 -24 215 -49 237 -11 10 -61 25 -117 35 -132 25 -182 41 -287 95 -49
25 -96 45 -105 45 -9 0 -51 -19 -95 -41z m194 -209 c82 -34 202 -70 236 -70
29 0 32 -11 40 -148 12 -219 -38 -365 -171 -498 -64 -64 -179 -144 -206 -144
-24 0 -159 98 -215 155 -66 69 -113 148 -140 240 -14 47 -18 91 -17 200 1 173
7 190 65 199 65 10 197 53 248 81 52 29 59 28 160 -15z"/>
<path d="M1338 3632 c-56 -34 -57 -108 -2 -151 27 -21 27 -21 729 -21 466 0
712 4 732 11 39 13 69 66 59 103 -4 15 -18 39 -31 52 l-24 24 -718 0 c-659 -1
-720 -2 -745 -18z"/>
<path d="M1338 3272 c-56 -34 -57 -108 -2 -151 27 -21 28 -22 532 -19 l504 3
24 28 c36 42 33 98 -7 131 l-31 26 -496 0 c-451 -1 -500 -2 -524 -18z"/>
<path d="M1334 2892 c-53 -42 -54 -103 -2 -147 l30 -25 264 0 c281 0 320 6
343 48 20 38 13 82 -18 113 l-29 29 -284 0 c-253 0 -285 -2 -304 -18z"/>
<path d="M1337 1869 c-27 -16 -49 -67 -42 -98 3 -16 16 -38 28 -49 22 -20 33
-21 335 -23 275 -1 315 1 338 15 51 34 55 108 7 146 -25 19 -40 20 -337 20
-193 0 -318 -4 -329 -11z"/>
<path d="M3789 3220 c-256 -41 -490 -237 -568 -478 -127 -393 100 -811 495
-912 103 -27 254 -27 356 -1 430 110 656 597 461 995 -92 189 -261 329 -459
380 -77 20 -212 27 -285 16z m207 -191 c264 -47 455 -315 416 -583 -33 -226
-198 -397 -426 -442 -75 -15 -98 -16 -164 -5 -196 30 -358 165 -423 352 -32
91 -32 250 0 332 55 141 138 237 254 296 113 57 218 73 343 50z"/>
</g>
</svg>
