<?xml version="1.0" standalone="no"?>
<!DOCTYPE svg PUBLIC "-//W3C//DTD SVG 20010904//EN"
 "http://www.w3.org/TR/2001/REC-SVG-20010904/DTD/svg10.dtd">
<svg version="1.0" xmlns="http://www.w3.org/2000/svg"
 width="612.000000pt" height="612.000000pt" viewBox="0 0 612.000000 612.000000"
 preserveAspectRatio="xMidYMid meet">
<metadata>
Created by potrace 1.16, written by Peter Selinger 2001-2019
</metadata>
<g transform="translate(0.000000,612.000000) scale(0.100000,-0.100000)"
fill="#000000" stroke="none">
<path d="M3026 4718 c-13 -18 -16 -51 -16 -153 0 -142 10 -175 54 -175 42 0
46 15 46 175 0 104 -4 155 -12 163 -19 19 -55 14 -72 -10z"/>
<path d="M1966 4284 c-9 -8 -16 -24 -16 -35 0 -25 205 -229 230 -229 22 0 50
31 50 55 0 10 -46 64 -102 121 -105 107 -130 121 -162 88z"/>
<path d="M4002 4196 c-64 -64 -102 -111 -102 -124 0 -20 33 -52 54 -52 17 0
226 214 226 231 0 10 -7 25 -16 33 -32 33 -57 19 -162 -88z"/>
<path d="M2907 4199 c-218 -32 -422 -141 -585 -314 -133 -141 -215 -296 -259
-489 -25 -110 -22 -327 6 -441 30 -125 112 -287 210 -415 44 -58 110 -143 146
-190 109 -142 175 -294 175 -404 0 -53 15 -76 49 -76 46 0 55 20 48 108 -12
158 -74 285 -244 502 -252 321 -308 451 -306 710 0 138 14 212 64 341 59 152
196 324 336 421 67 45 200 106 288 130 65 17 107 21 230 21 178 0 258 -17 401
-88 254 -125 420 -330 496 -613 29 -109 29 -324 0 -434 -41 -153 -100 -253
-292 -498 -160 -204 -222 -331 -236 -489 -8 -83 4 -111 46 -111 34 0 50 23 50
70 0 113 66 269 175 410 36 47 101 132 146 190 187 244 264 502 229 770 -30
232 -131 438 -292 598 -161 159 -341 253 -551 287 -99 16 -237 18 -330 4z"/>
<path d="M2927 3860 c-18 -15 -29 -37 -37 -78 -25 -123 -26 -125 -83 -156
l-53 -28 -87 28 c-119 38 -126 35 -199 -91 -32 -55 -58 -112 -58 -126 0 -19
19 -44 75 -98 l75 -72 -1 -55 c-2 -54 -3 -55 -76 -124 -57 -54 -73 -75 -73
-97 0 -16 26 -71 60 -129 45 -77 65 -103 85 -108 16 -4 59 3 115 20 l88 27 54
-31 54 -31 17 -88 c24 -125 28 -128 181 -128 147 0 159 6 176 94 25 123 26
124 83 155 l53 29 83 -27 c121 -39 129 -36 201 87 36 60 60 112 60 130 0 22
-15 42 -70 94 l-70 66 0 63 0 63 52 48 c28 26 60 56 70 66 30 28 21 67 -39
172 -73 126 -80 129 -201 91 l-89 -29 -49 28 c-27 16 -50 30 -52 31 -2 1 -12
42 -23 91 -27 126 -37 133 -183 133 -99 0 -117 -3 -139 -20z m228 -157 c9 -43
23 -88 31 -100 21 -34 147 -103 187 -103 18 0 60 9 92 20 32 11 63 20 69 20 6
0 26 -28 45 -62 l34 -62 -61 -55 c-71 -64 -82 -88 -82 -176 0 -87 11 -111 82
-176 l62 -55 -34 -60 c-18 -32 -34 -61 -36 -63 -1 -1 -42 9 -91 23 l-88 26
-65 -32 c-104 -53 -126 -77 -140 -156 -19 -103 -20 -103 -98 -100 l-67 3 -20
82 c-24 97 -39 116 -137 166 l-73 38 -84 -26 c-46 -13 -87 -22 -91 -20 -5 3
-23 31 -40 62 l-33 57 61 56 c71 64 82 88 82 175 0 88 -11 112 -81 176 l-62
56 34 61 c19 34 39 62 44 62 6 0 39 -9 73 -20 35 -11 77 -20 94 -20 35 0 162
71 183 103 11 17 45 147 45 173 0 2 33 4 74 4 l74 0 17 -77z"/>
<path d="M2994 3439 c-148 -43 -231 -220 -168 -359 108 -238 460 -187 499 72
6 39 4 49 -15 68 -15 15 -27 19 -43 14 -28 -8 -33 -18 -41 -64 -28 -178 -270
-193 -316 -19 -23 86 43 181 134 194 69 11 92 57 48 93 -18 14 -53 14 -98 1z"/>
<path d="M1526 3224 c-19 -18 -21 -55 -4 -72 17 -17 309 -17 326 0 18 18 15
53 -6 71 -27 24 -293 25 -316 1z"/>
<path d="M4288 3229 c-21 -12 -24 -59 -6 -77 8 -8 58 -12 158 -12 154 0 170 4
170 46 0 44 -33 54 -175 54 -71 0 -138 -5 -147 -11z"/>
<path d="M2054 2248 c-68 -67 -104 -109 -104 -123 0 -24 29 -55 50 -55 7 0 59
46 116 102 82 81 104 108 104 130 0 26 -23 48 -51 48 -6 0 -58 -46 -115 -102z"/>
<path d="M3920 2330 c-11 -11 -20 -26 -20 -34 0 -17 175 -197 208 -215 19 -10
28 -10 48 4 13 8 24 25 24 37 0 26 -197 228 -223 228 -9 0 -26 -9 -37 -20z"/>
<path d="M2610 1701 c-16 -30 -12 -48 12 -65 19 -14 79 -16 449 -16 415 0 426
1 444 20 15 16 17 26 9 48 l-9 27 -447 3 c-434 2 -447 2 -458 -17z"/>
<path d="M2817 1462 c-21 -23 -22 -46 -1 -66 13 -14 50 -16 248 -16 213 0 234
2 249 18 23 25 21 48 -5 66 -19 13 -60 16 -249 16 -206 0 -227 -2 -242 -18z"/>
</g>
</svg>
