<?xml version="1.0" standalone="no"?>
<!DOCTYPE svg PUBLIC "-//W3C//DTD SVG 20010904//EN"
 "http://www.w3.org/TR/2001/REC-SVG-20010904/DTD/svg10.dtd">
<svg version="1.0" xmlns="http://www.w3.org/2000/svg"
 width="612.000000pt" height="612.000000pt" viewBox="0 0 612.000000 612.000000"
 preserveAspectRatio="xMidYMid meet">
<metadata>
Created by potrace 1.16, written by Peter Selinger 2001-2019
</metadata>
<g transform="translate(0.000000,612.000000) scale(0.100000,-0.100000)"
fill="#000000" stroke="none">
<path d="M2995 4691 c-75 -34 -79 -46 -85 -205 l-5 -141 -58 -97 -58 -98 -472
0 c-514 0 -496 2 -526 -57 -38 -74 24 -153 119 -153 l31 0 -67 -127 c-141
-269 -265 -505 -359 -685 l-97 -188 -46 0 -45 0 6 -67 c21 -256 233 -498 487
-557 85 -20 236 -20 313 0 181 47 336 173 418 339 39 78 68 188 69 253 0 31
-1 32 -44 32 l-44 0 -138 263 c-75 144 -156 298 -179 342 -23 44 -79 151 -124
238 l-82 157 451 0 450 0 0 -1090 0 -1090 -259 0 c-252 0 -259 -1 -292 -23
-18 -12 -44 -38 -57 -57 -20 -30 -23 -45 -20 -101 3 -53 9 -73 30 -101 55 -72
21 -69 762 -66 653 3 665 3 692 24 49 36 67 70 72 132 5 73 -14 120 -64 158
l-37 29 -264 3 -263 3 0 1089 0 1090 450 0 451 0 -90 -172 c-49 -95 -166 -319
-260 -498 l-169 -325 -46 -3 c-46 -3 -46 -3 -46 -41 0 -61 36 -186 76 -261 71
-136 209 -255 354 -307 60 -22 98 -28 191 -31 202 -7 335 44 475 183 64 63 89
98 122 165 46 95 72 182 72 247 l0 43 -44 0 -44 0 -153 293 c-174 335 -228
438 -310 593 l-59 111 52 5 c89 9 132 82 93 157 -8 16 -22 32 -32 37 -10 5
-231 11 -492 14 l-474 5 -58 100 -58 100 -1 132 c0 132 0 132 -30 166 -27 32
-84 57 -126 57 -11 0 -37 -9 -59 -19z m-755 -1434 c83 -170 150 -310 150 -313
0 -2 -187 -4 -415 -4 -228 0 -415 2 -415 5 0 4 93 196 317 657 l97 200 58
-119 c32 -65 126 -257 208 -426z m1920 524 c0 -4 61 -134 136 -287 147 -300
264 -545 264 -550 0 -2 -187 -4 -416 -4 -247 0 -414 4 -412 9 2 5 95 199 207
430 175 361 221 445 221 402z"/>
</g>
</svg>
